<?xml version="1.0" encoding="UTF-8"?>
<svg xmlns="http://www.w3.org/2000/svg"
    xmlns:xlink="http://www.w3.org/1999/xlink" width="149px" height="58px" viewBox="0 0 149 58" version="1.1">
    <g id="surface1">
        <path style=" stroke:none;fill-rule:nonzero;fill:rgb(1.568627%,41.176471%,21.568627%);fill-opacity:1;" d="M 18.746094 37.890625 L 13.113281 23.773438 L 7.402344 37.890625 L 0 18.421875 L 3.648438 18.421875 L 7.617188 29.714844 L 11.878906 18.421875 L 14.535156 18.421875 L 18.71875 29.714844 L 22.792969 18.421875 L 26.144531 18.421875 Z M 18.746094 37.890625 "/>
        <path style=" stroke:none;fill-rule:nonzero;fill:rgb(1.568627%,41.176471%,21.568627%);fill-opacity:1;" d="M 36.820312 30.871094 C 36.820312 34.609375 33.816406 37.566406 30.035156 37.566406 C 26.253906 37.566406 23.25 34.609375 23.25 30.871094 C 23.25 27.109375 26.253906 24.175781 30.035156 24.175781 C 33.816406 24.175781 36.820312 27.109375 36.820312 30.871094 Z M 33.546875 30.871094 C 33.546875 28.882812 32.207031 27.1875 30.035156 27.1875 C 27.863281 27.1875 26.519531 28.882812 26.519531 30.871094 C 26.519531 32.863281 27.863281 34.554688 30.035156 34.554688 C 32.207031 34.554688 33.546875 32.863281 33.546875 30.871094 Z M 33.546875 30.871094 "/>
        <path style=" stroke:none;fill-rule:nonzero;fill:rgb(1.568627%,41.176471%,21.568627%);fill-opacity:1;" d="M 50.816406 30.871094 C 50.816406 34.609375 47.8125 37.566406 44.03125 37.566406 C 40.25 37.566406 37.246094 34.609375 37.246094 30.871094 C 37.246094 27.109375 40.25 24.175781 44.03125 24.175781 C 47.8125 24.175781 50.816406 27.109375 50.816406 30.871094 Z M 47.546875 30.871094 C 47.546875 28.882812 46.203125 27.1875 44.03125 27.1875 C 41.859375 27.1875 40.519531 28.882812 40.519531 30.871094 C 40.519531 32.863281 41.859375 34.554688 44.03125 34.554688 C 46.203125 34.554688 47.546875 32.863281 47.546875 30.871094 Z M 47.546875 30.871094 "/>
        <path style=" stroke:none;fill-rule:nonzero;fill:rgb(1.568627%,41.176471%,21.568627%);fill-opacity:1;" d="M 63.582031 28.988281 L 63.582031 37.246094 L 60.363281 37.246094 L 60.363281 29.796875 C 60.363281 27.96875 59.238281 27.1875 57.84375 27.1875 C 56.179688 27.1875 55.320312 28.828125 55.320312 28.828125 L 55.320312 37.246094 L 52.105469 37.246094 L 52.105469 24.5 L 55.105469 24.5 L 55.105469 26.355469 C 55.105469 26.355469 56.234375 24.175781 58.914062 24.175781 C 61.382812 24.175781 63.582031 25.925781 63.582031 28.988281 Z M 63.582031 28.988281 "/>
        <path style=" stroke:none;fill-rule:nonzero;fill:rgb(1.568627%,41.176471%,21.568627%);fill-opacity:1;" d="M 68.785156 26.058594 L 76.292969 26.058594 L 76.292969 29.125 L 68.785156 29.125 L 68.785156 34.179688 L 77.097656 34.179688 L 77.097656 37.246094 L 65.566406 37.246094 L 65.566406 18.421875 L 76.9375 18.421875 L 76.9375 21.488281 L 68.785156 21.488281 Z M 68.785156 26.058594 "/>
        <path style=" stroke:none;fill-rule:nonzero;fill:rgb(1.568627%,41.176471%,21.568627%);fill-opacity:1;" d="M 77.929688 24.5 L 81.707031 24.5 L 84.308594 28.425781 L 86.859375 24.5 L 90.53125 24.5 L 86.105469 30.65625 L 90.800781 37.246094 L 86.964844 37.246094 L 84.09375 32.890625 L 81.226562 37.246094 L 77.578125 37.246094 L 82.300781 30.65625 Z M 77.929688 24.5 "/>
        <path style=" stroke:none;fill-rule:nonzero;fill:rgb(1.568627%,41.176471%,21.568627%);fill-opacity:1;" d="M 94.742188 24.5 L 94.742188 26.167969 C 94.742188 26.167969 95.949219 24.175781 98.578125 24.175781 C 101.875 24.175781 104.769531 26.945312 104.769531 30.871094 C 104.769531 34.796875 101.875 37.566406 98.578125 37.566406 C 96.566406 37.566406 95.410156 36.464844 94.984375 35.925781 L 94.984375 43.429688 L 91.765625 43.429688 L 91.765625 24.5 Z M 94.984375 32.78125 C 94.984375 32.78125 95.894531 34.554688 98.011719 34.554688 C 100.183594 34.554688 101.5 32.96875 101.5 30.871094 C 101.5 28.773438 100.183594 27.1875 98.011719 27.1875 C 95.894531 27.1875 94.984375 28.964844 94.984375 28.964844 Z M 94.984375 32.78125 "/>
        <path style=" stroke:none;fill-rule:nonzero;fill:rgb(1.568627%,41.176471%,21.568627%);fill-opacity:1;" d="M 117.992188 30.820312 C 117.992188 31.058594 117.992188 31.542969 117.964844 32.027344 L 108.472656 32.027344 C 108.714844 33.15625 110.027344 34.609375 112.039062 34.609375 C 114.265625 34.609375 115.523438 33.320312 115.523438 33.320312 L 117.132812 35.738281 C 117.132812 35.738281 115.121094 37.566406 112.039062 37.566406 C 108.175781 37.566406 105.199219 34.609375 105.199219 30.871094 C 105.199219 27.136719 107.910156 24.175781 111.582031 24.175781 C 115.070312 24.175781 117.992188 26.894531 117.992188 30.820312 Z M 114.773438 29.6875 C 114.71875 28.585938 113.699219 27.109375 111.582031 27.109375 C 109.515625 27.109375 108.578125 28.558594 108.472656 29.6875 Z M 114.773438 29.6875 "/>
        <path style=" stroke:none;fill-rule:nonzero;fill:rgb(1.568627%,41.176471%,21.568627%);fill-opacity:1;" d="M 127.992188 24.582031 L 126.867188 27.484375 C 126.867188 27.484375 126.277344 27.1875 125.339844 27.1875 C 123.382812 27.1875 122.496094 28.910156 122.496094 28.910156 L 122.496094 37.246094 L 119.277344 37.246094 L 119.277344 24.5 L 122.335938 24.5 L 122.335938 26.355469 C 122.335938 26.355469 123.433594 24.175781 125.796875 24.175781 C 126.949219 24.175781 127.992188 24.582031 127.992188 24.582031 Z M 127.992188 24.582031 "/>
        <path style=" stroke:none;fill-rule:nonzero;fill:rgb(1.568627%,41.176471%,21.568627%);fill-opacity:1;" d="M 128.636719 24.5 L 131.132812 24.5 L 131.132812 20.707031 L 134.347656 20.707031 L 134.347656 24.5 L 138.183594 24.5 L 138.183594 27.402344 L 134.347656 27.402344 L 134.347656 32.539062 C 134.347656 34.097656 135.152344 34.554688 136.011719 34.554688 C 136.734375 34.554688 137.351562 34.097656 137.351562 34.097656 L 138.53125 36.734375 C 138.53125 36.734375 137.324219 37.566406 135.476562 37.566406 C 133.007812 37.566406 131.132812 35.765625 131.132812 33.050781 L 131.132812 27.402344 L 128.636719 27.402344 Z M 128.636719 24.5 "/>
        <path style=" stroke:none;fill-rule:nonzero;fill:rgb(1.568627%,41.176471%,21.568627%);fill-opacity:1;" d="M 2.464844 48.25 L 5.328125 54.570312 L 8.1875 48.25 L 9.917969 48.25 L 5.265625 57.984375 L 0.613281 48.25 Z M 2.464844 48.25 "/>
        <path style=" stroke:none;fill-rule:nonzero;fill:rgb(1.568627%,41.176471%,21.568627%);fill-opacity:1;" d="M 11.691406 42.3125 L 13.382812 42.3125 L 13.382812 57.582031 L 11.691406 57.582031 Z M 11.691406 42.3125 "/>
        <path style=" stroke:none;fill-rule:nonzero;fill:rgb(1.568627%,41.176471%,21.568627%);fill-opacity:1;" d="M 24.058594 51.441406 L 24.058594 57.582031 L 22.507812 57.582031 L 22.507812 56.226562 C 22.507812 56.226562 21.460938 57.824219 19.347656 57.824219 C 17.675781 57.824219 15.882812 56.652344 15.882812 54.632812 C 15.882812 52.816406 17.472656 51.523438 19.566406 51.523438 C 21.28125 51.523438 22.367188 52.289062 22.367188 52.289062 L 22.367188 51.785156 C 22.367188 49.84375 20.757812 49.582031 20.011719 49.582031 C 18.601562 49.582031 17.230469 50.371094 17.230469 50.371094 L 16.527344 48.957031 C 16.527344 48.957031 17.976562 48.007812 20.011719 48.007812 C 22.75 48.007812 24.058594 49.703125 24.058594 51.441406 Z M 22.367188 54.914062 L 22.367188 53.601562 C 22.367188 53.601562 21.441406 52.9375 19.929688 52.9375 C 18.480469 52.9375 17.574219 53.664062 17.574219 54.632812 C 17.574219 55.84375 18.660156 56.328125 19.710938 56.328125 C 21.359375 56.328125 22.367188 54.914062 22.367188 54.914062 Z M 22.367188 54.914062 "/>
        <path style=" stroke:none;fill-rule:nonzero;fill:rgb(1.568627%,41.176471%,21.568627%);fill-opacity:1;" d="M 34.375 51.441406 L 34.375 57.582031 L 32.824219 57.582031 L 32.824219 56.226562 C 32.824219 56.226562 31.773438 57.824219 29.660156 57.824219 C 27.988281 57.824219 26.195312 56.652344 26.195312 54.632812 C 26.195312 52.816406 27.785156 51.523438 29.882812 51.523438 C 31.59375 51.523438 32.683594 52.289062 32.683594 52.289062 L 32.683594 51.785156 C 32.683594 49.84375 31.070312 49.582031 30.324219 49.582031 C 28.914062 49.582031 27.546875 50.371094 27.546875 50.371094 L 26.839844 48.957031 C 26.839844 48.957031 28.289062 48.007812 30.324219 48.007812 C 33.0625 48.007812 34.375 49.703125 34.375 51.441406 Z M 32.683594 54.914062 L 32.683594 53.601562 C 32.683594 53.601562 31.753906 52.9375 30.246094 52.9375 C 28.792969 52.9375 27.886719 53.664062 27.886719 54.632812 C 27.886719 55.84375 28.976562 56.328125 30.023438 56.328125 C 31.675781 56.328125 32.683594 54.914062 32.683594 54.914062 Z M 32.683594 54.914062 "/>
        <path style=" stroke:none;fill-rule:nonzero;fill:rgb(1.568627%,41.176471%,21.568627%);fill-opacity:1;" d="M 44.890625 51.582031 L 44.890625 57.582031 L 43.195312 57.582031 L 43.195312 51.867188 C 43.195312 50.269531 42.210938 49.582031 40.960938 49.582031 C 39.449219 49.582031 38.644531 51.160156 38.644531 51.160156 L 38.644531 57.582031 L 36.953125 57.582031 L 36.953125 48.25 L 38.523438 48.25 L 38.523438 49.5625 C 38.523438 49.5625 39.371094 48.007812 41.382812 48.007812 C 43.238281 48.007812 44.890625 49.28125 44.890625 51.582031 Z M 44.890625 51.582031 "/>
        <path style=" stroke:none;fill-rule:nonzero;fill:rgb(1.568627%,41.176471%,21.568627%);fill-opacity:1;" d="M 54.335938 49.402344 L 54.335938 42.3125 L 56.027344 42.3125 L 56.027344 57.582031 L 54.476562 57.582031 L 54.476562 56.226562 C 54.476562 56.226562 53.570312 57.824219 51.335938 57.824219 C 48.816406 57.824219 46.824219 55.664062 46.824219 52.914062 C 46.824219 50.167969 48.816406 48.007812 51.335938 48.007812 C 53.390625 48.007812 54.335938 49.402344 54.335938 49.402344 Z M 54.335938 51.199219 C 54.335938 51.199219 53.449219 49.582031 51.597656 49.582031 C 49.742188 49.582031 48.515625 51.078125 48.515625 52.914062 C 48.515625 54.753906 49.703125 56.246094 51.597656 56.246094 C 53.449219 56.246094 54.335938 54.632812 54.335938 54.632812 Z M 54.335938 51.199219 "/>
        <path style=" stroke:none;fill-rule:nonzero;fill:rgb(1.568627%,41.176471%,21.568627%);fill-opacity:1;" d="M 67.511719 52.976562 C 67.511719 53.15625 67.511719 53.300781 67.488281 53.523438 L 59.976562 53.523438 C 60.078125 54.933594 61.425781 56.246094 63.179688 56.246094 C 65.011719 56.246094 65.980469 54.875 65.980469 54.875 L 67.046875 55.984375 C 67.046875 55.984375 65.636719 57.824219 63.179688 57.824219 C 60.359375 57.824219 58.324219 55.683594 58.324219 52.914062 C 58.324219 50.1875 60.179688 48.007812 62.976562 48.007812 C 65.578125 48.007812 67.511719 49.96875 67.511719 52.976562 Z M 65.859375 52.109375 C 65.796875 51.058594 64.851562 49.582031 62.976562 49.582031 C 60.964844 49.582031 60.136719 51.136719 60.015625 52.109375 Z M 65.859375 52.109375 "/>
        <path style=" stroke:none;fill-rule:nonzero;fill:rgb(1.568627%,41.176471%,21.568627%);fill-opacity:1;" d="M 74.964844 48.25 L 74.339844 49.785156 C 74.339844 49.785156 73.976562 49.582031 73.269531 49.582031 C 71.800781 49.582031 71.136719 51.160156 71.136719 51.160156 L 71.136719 57.582031 L 69.445312 57.582031 L 69.445312 48.25 L 71.015625 48.25 L 71.015625 49.683594 C 71.015625 49.683594 71.839844 48.007812 73.613281 48.007812 C 74.378906 48.007812 74.964844 48.25 74.964844 48.25 Z M 74.964844 48.25 "/>
        <path style=" stroke:none;fill-rule:nonzero;fill:rgb(1.568627%,41.176471%,21.568627%);fill-opacity:1;" d="M 84.511719 52.976562 C 84.511719 53.15625 84.511719 53.300781 84.492188 53.523438 L 76.976562 53.523438 C 77.078125 54.933594 78.429688 56.246094 80.179688 56.246094 C 82.015625 56.246094 82.980469 54.875 82.980469 54.875 L 84.046875 55.984375 C 84.046875 55.984375 82.636719 57.824219 80.179688 57.824219 C 77.359375 57.824219 75.324219 55.683594 75.324219 52.914062 C 75.324219 50.1875 77.179688 48.007812 79.980469 48.007812 C 82.578125 48.007812 84.511719 49.96875 84.511719 52.976562 Z M 82.859375 52.109375 C 82.800781 51.058594 81.851562 49.582031 79.980469 49.582031 C 77.964844 49.582031 77.140625 51.136719 77.019531 52.109375 Z M 82.859375 52.109375 "/>
        <path style=" stroke:none;fill-rule:nonzero;fill:rgb(1.568627%,41.176471%,21.568627%);fill-opacity:1;" d="M 94.382812 51.582031 L 94.382812 57.582031 L 92.691406 57.582031 L 92.691406 51.867188 C 92.691406 50.269531 91.703125 49.582031 90.453125 49.582031 C 88.941406 49.582031 88.136719 51.160156 88.136719 51.160156 L 88.136719 57.582031 L 86.445312 57.582031 L 86.445312 48.25 L 88.015625 48.25 L 88.015625 49.5625 C 88.015625 49.5625 88.863281 48.007812 90.878906 48.007812 C 92.730469 48.007812 94.382812 49.28125 94.382812 51.582031 Z M 94.382812 51.582031 "/>
        <path style=" stroke:none;fill-rule:nonzero;fill:rgb(55.294118%,77.647059%,25.490196%);fill-opacity:1;" d="M 143.394531 57.984375 L 105.320312 57.984375 C 102.238281 57.984375 99.730469 55.472656 99.730469 52.382812 L 99.730469 46.839844 C 99.730469 46.167969 100.273438 45.621094 100.945312 45.621094 C 101.613281 45.621094 102.160156 46.167969 102.160156 46.839844 L 102.160156 52.382812 C 102.160156 54.128906 103.578125 55.550781 105.320312 55.550781 L 143.394531 55.550781 C 145.140625 55.550781 146.558594 54.128906 146.558594 52.382812 L 146.558594 22.769531 C 146.558594 21.871094 146.175781 21.011719 145.511719 20.414062 L 126.492188 3.253906 C 125.28125 2.160156 123.457031 2.167969 122.25 3.269531 C 116.019531 8.964844 109.175781 14.824219 108.402344 15.402344 C 107.867188 15.804688 107.105469 15.695312 106.703125 15.15625 C 106.300781 14.617188 106.414062 13.855469 106.949219 13.453125 C 107.675781 12.90625 114.554688 7.011719 120.613281 1.46875 C 122.746094 -0.480469 125.972656 -0.492188 128.117188 1.445312 L 147.136719 18.601562 C 148.3125 19.664062 148.984375 21.183594 148.984375 22.769531 L 148.984375 52.382812 C 148.984375 55.472656 146.476562 57.984375 143.394531 57.984375 Z M 143.394531 57.984375 "/>
    </g>
</svg>
