<?xml version="1.0" encoding="UTF-8"?>
<svg id="Layer_2" data-name="Layer 2" xmlns="http://www.w3.org/2000/svg" width="4437.576557581" height="1722.571408404" viewBox="0 0 4437.576557581 1722.571408404">
  <defs>
    <style>
      .cls-1 {
        fill: #8dc641;
      }

      .cls-2 {
        fill: #046937;
      }
    </style>
  </defs>
  <g id="Layer_1-2" data-name="Layer 1">
    <g>
      <path class="cls-2" d="m558.3187652983,1125.5879777366l-167.740816096-419.3395731296-170.1261899054,419.3395731296L0,547.3010571181h108.6259338008l118.2131417765,335.4691650816,127.0024546802-335.4691650816h79.0747262084l124.6004580569,335.4691650816,121.4088777685-335.4691650816h99.8449323041l-220.451759297,578.2869206185Z"/>
      <path class="cls-2" d="m1096.6569081661,917.1171116317c0,111.0237747206-89.4639849598,198.8836581291-202.0835498246,198.8836581291s-202.0835498245-87.8598834085-202.0835498245-198.8836581291c0-111.8237476444,89.4639849598-198.8857359809,202.0835498245-198.8857359809s202.0835498246,87.0619883364,202.0835498246,198.8857359809Zm-97.4512470878,0c0-59.1065708883-39.9363106402-109.4279845764-104.6323027367-109.4279845764s-104.6323027367,50.3214136881-104.6323027367,109.4279845764,39.9363106402,109.4259067246,104.6323027367,109.4259067246,104.6323027367-50.3193358364,104.6323027367-109.4259067246Z"/>
      <path class="cls-2" d="m1513.5903289688,917.1171116317c0,111.0237747206-89.4556735528,198.8836581291-202.079394121,198.8836581291s-202.079394121-87.8598834085-202.079394121-198.8836581291c0-111.8237476444,89.4556735528-198.8857359809,202.079394121-198.8857359809s202.079394121,87.0619883364,202.079394121,198.8857359809Zm-97.4429356808,0c0-59.1065708883-39.9363106402-109.4279845764-104.6364584402-109.4279845764s-104.6364584402,50.3214136881-104.6364584402,109.4279845764,39.9363106402,109.4259067246,104.6364584402,109.4259067246,104.6364584402-50.3193358364,104.6364584402-109.4259067246Z"/>
      <path class="cls-2" d="m1893.7873308268,861.2041988836v245.213518605h-95.8471455366v-221.2517322208c0-54.3129669004-33.5448386564-77.4768582124-75.0810951444-77.4768582124-49.523518616,0-75.0810951444,48.7235456921-75.0810951444,48.7235456921v250.0050447411h-95.8471455366v-378.6032895655h89.4556735528v55.1129398242s33.5489943599-64.6959920965,113.4257713439-64.6959920965c73.4811492967,0,138.9750364653,51.9172038323,138.9750364653,142.9728232328Z"/>
      <path class="cls-2" d="m2048.7368915481,774.1422105471h223.6433395854v91.0556194005h-223.6433395854v150.1642681405h247.6051259695v91.0556194005h-343.4522715061v-559.1166603704h338.6649010735v91.0556194005h-242.8177555369v135.7855340286Z"/>
      <path class="cls-2" d="m2321.1016989739,727.8144279231h112.6195648648l77.4789360642,116.6173516323,75.88314592-116.6173516323h109.4196731694l-131.7856694093,182.9112117248,139.7729315374,195.6920778407h-114.215355009l-85.4661981922-129.3961398965-85.4661981922,129.3961398965h-108.6300895043l140.5791380165-195.6920778407-130.1898792651-182.9112117248Z"/>
      <path class="cls-2" d="m2821.9055278247,727.8144279231v49.523518616s35.9385238727-59.1065708883,114.215355009-59.1065708883c98.2491421599,0,184.5132354242,82.2683843486,184.5132354242,198.8857359809,0,116.6152737806-86.2640932643,198.8836581291-184.5132354242,198.8836581291-59.9003102569,0-94.2513553924-32.7469435843-107.0259879531-48.7214678404v222.8496002168h-95.8554569436v-562.3144742141h88.6660898876Zm7.1893670559,246.0134915288s27.1533666726,52.7150989044,90.2535686249,52.7150989044c64.6959920965,0,103.8344076646-47.1256776962,103.8344076646-109.4259067246,0-62.3023068802-39.1384155681-109.4279845764-103.8344076646-109.4279845764-63.1002019523,0-90.2535686249,52.7171767562-90.2535686249,52.7171767562v113.4216156404Z"/>
      <path class="cls-2" d="m3514.4119591557,915.5192436357c0,7.1893670559,0,21.5660233161-.8062064791,35.9426795762h-282.7540661772c7.1893670559,33.5469165082,46.3277826241,76.6789631403,106.236404288,76.6789631403,66.2917822407,0,103.8344076646-38.3384426443,103.8344076646-38.3384426443l47.9235727683,71.8853591524s-59.9003102569,54.3129669004-151.7579804329,54.3129669004c-115.0215614881,0-203.6793399688-87.8598834085-203.6793399688-198.8836581291,0-111.0258525723,80.6705163526-198.8857359809,190.098500929-198.8857359809,103.8344076646,0,190.9047074081,80.6725942044,190.9047074081,197.2878679849Zm-95.8554569436-33.5469165082c-1.5957901442-32.7490214361-31.9490485122-76.6789631403-95.0492504645-76.6789631403-61.5044118081,0-89.4556735528,43.1320466322-92.6555652482,76.6789631403h187.7048157127Z"/>
      <path class="cls-2" d="m3812.3260317028,730.2122688429l-33.5448386564,86.2640932643s-17.5703144003-8.7872350519-45.529887552-8.7872350519c-58.3045201127,0-84.6599917131,51.1193087602-84.6599917131,51.1193087602v247.609281673h-95.8554569436v-378.6032895655h91.059775104v55.1129398242s32.7469435843-64.6959920965,103.0365125925-64.6959920965c34.3427337285,0,65.4938871686,11.9808931921,65.4938871686,11.9808931921Z"/>
      <path class="cls-2" d="m3831.4921362473,727.8144279231h74.2790443688v-112.6216427165h95.8554569436v112.6216427165h114.215355009v86.2640932643h-114.215355009v152.5600312085c0,46.3257047723,23.9617863841,59.9044659604,49.5193629125,59.9044659604,21.5681011678,0,39.9363106402-13.578761188,39.9363106402-13.578761188l35.1406288006,78.2768311363s-35.9385238727,24.7596814562-91.051463697,24.7596814562c-73.4811492967,0-129.4002956-53.5129939765-129.4002956-134.1855881809v-167.7366603925h-74.2790443688v-86.2640932643Z"/>
    </g>
    <g>
      <path class="cls-2" d="m73.4562150757,1433.3635346905l85.2002331682,187.7920854862,85.2002331682-187.7920854862h51.5972146628l-138.5968674467,289.1912508995L18.2601611814,1433.3635346905h55.1960538943Z"/>
      <path class="cls-2" d="m348.2562647528,1256.9663882028h50.4003720546v453.5867256776h-50.4003720546v-453.5867256776Z"/>
      <path class="cls-2" d="m716.6344458551,1528.1592872414v182.393826639h-46.1948001121v-40.1981199608s-31.2010218821,47.3957984237-94.2014869504,47.3957984237c-49.7936393435,0-103.1944293255-34.7957054101-103.1944293255-94.795752551,0-53.9950555826,47.3999541272-92.3937559276,109.7978421879-92.3937559276,50.9946376552,0,83.396657849,22.798189404,83.396657849,22.798189404v-15.002089637c0-57.5980505176-47.9983754313-65.3941502846-70.1981435312-65.3941502846-41.9975395765,0-82.7940808414,23.3966107081-82.7940808414,23.3966107081l-21.0029254918-41.9975395765s43.2026935917-28.2006039547,103.7970063331-28.2006039547c81.5972382332,0,120.5943598823,50.4003720546,120.5943598823,101.9975867174Zm-50.3962163511,103.1944293256v-38.9971216491s-27.5980269471-19.7977714766-72.595984451-19.7977714766c-43.2026935917,0-70.1981435312,21.5971910923-70.1981435312,50.3962163511,0,36.0008594252,32.3978644902,50.4003720546,63.5988863723,50.4003720546,49.1952180395,0,79.1952416099-42.00169528,79.1952416099-42.00169528Z"/>
      <path class="cls-2" d="m1023.8323600225,1528.1592872414v182.393826639h-46.2031115191v-40.1981199608s-31.1968661786,47.3957984237-94.1931755434,47.3957984237c-49.8019507505,0-103.1944293256-34.7957054101-103.1944293256-94.795752551,0-53.9950555826,47.3957984237-92.3937559276,109.7936864844-92.3937559276,50.9987933587,0,83.3966578489,22.798189404,83.3966578489,22.798189404v-15.002089637c0-57.5980505176-47.9983754313-65.3941502846-70.1981435312-65.3941502846-41.9975395765,0-82.7982365449,23.3966107081-82.7982365449,23.3966107081l-20.9946140848-41.9975395765s43.1943821847-28.2006039547,103.7928506296-28.2006039547c81.5972382332,0,120.5985155858,50.4003720546,120.5985155858,101.9975867174Zm-50.4003720546,103.1944293256v-38.9971216491s-27.6021826506-19.7977714766-72.6001401545-19.7977714766c-43.1943821847,0-70.1981435312,21.5971910923-70.1981435312,50.3962163511,0,36.0008594252,32.4020201938,50.4003720546,63.5988863724,50.4003720546,49.2035294465,0,79.1993973134-42.00169528,79.1993973134-42.00169528Z"/>
      <path class="cls-2" d="m1337.0227986376,1532.3607034805v178.1924103999h-50.4003720546v-169.7937336253c0-47.3999541272-29.3974465629-67.7961469079-66.5993042997-67.7961469079-44.9979575039,0-68.9929895161,46.7973771196-68.9929895161,46.7973771196v190.7925034136h-50.4003720546v-277.1895791899h46.8015328231v38.9971216491s25.1960303238-46.1989558156,85.1919217612-46.1989558156c55.2002095978,0,104.3995833407,37.800279041,104.3995833407,106.1990029565Z"/>
      <path class="cls-2" d="m1618.4137940666,1467.5608187965v-210.5944305937h50.3962163511v453.5867256776h-46.1989558156v-40.1981199608s-26.999605643,47.3957984237-93.5947542393,47.3957984237c-75.0021367778,0-134.3954512077-64.1973076764-134.3954512077-145.7945459096s59.3933144298-145.7945459096,134.3954512077-145.7945459096c61.196889749,0,89.3974937037,41.3991182724,89.3974937037,41.3991182724Zm0,53.400789982s-26.401184339-47.9983754313-81.6013939367-47.9983754313c-55.1960538943,0-91.7953346236,44.3953804963-91.7953346236,98.9930130865,0,54.6017882937,35.3982824177,98.99716879,91.7953346236,98.99716879,55.2002095978,0,81.6013939367-47.9983754313,81.6013939367-47.9983754313v-101.9934310139Z"/>
      <path class="cls-2" d="m2010.8036299952,1573.7556660494c0,5.4024145507,0,9.5996750863-.5984213041,16.2030879486h-223.7929449114c3.0004179274,41.9975395765,43.1943821847,80.9946612256,95.3983295585,80.9946612256,54.5976325902,0,83.396657849-40.7965412649,83.396657849-40.7965412649l31.7994431862,32.9962857943s-42.00169528,54.5976325902-115.1961010351,54.5976325902c-83.9992348565,0-144.5977033015-63.5947306689-144.5977033015-145.7945459096,0-80.9946612256,55.2002095977-145.7945459096,138.5968674467-145.7945459096,77.3958219942,0,134.9938725117,58.2006275251,134.9938725117,147.5939655254Zm-49.1952180395-25.7986073314c-1.8035753192-31.1968661786-30.0041792739-74.9938253709-85.7986544723-74.9938253709-60.0000471409,0-84.6018118641,46.1948001121-88.2006510956,74.9938253709h173.9993055679Z"/>
      <path class="cls-2" d="m2232.7929995873,1433.3635346905l-18.5926174615,45.596378808s-10.8048291014-5.9966801513-31.7994431862-5.9966801513c-43.8011148958,0-63.5988863723,46.7973771196-63.5988863723,46.7973771196v190.7925034136h-50.4003720546v-277.1895791899h46.8015328232v42.5959608806s24.5934533162-49.797795047,77.3958219942-49.797795047c22.798189404,0,40.1939642573,7.2018341664,40.1939642573,7.2018341664Z"/>
      <path class="cls-2" d="m2517.1927243507,1573.7556660494c0,5.4024145507,0,9.5996750863-.5984213041,16.2030879486h-223.7929449114c3.0004179274,41.9975395765,43.2026935917,80.9946612256,95.3983295585,80.9946612256,54.5976325902,0,83.396657849-40.7965412649,83.396657849-40.7965412649l31.7994431862,32.9962857943s-41.9975395765,54.5976325902-115.1961010351,54.5976325902c-83.995079153,0-144.593547598-63.5947306689-144.593547598-145.7945459096,0-80.9946612256,55.1960538943-145.7945459096,138.5927117432-145.7945459096,77.3958219942,0,134.9938725117,58.2006275251,134.9938725117,147.5939655254Zm-49.1952180395-25.7986073314c-1.8035753192-31.1968661786-29.9958678669-74.9938253709-85.7986544723-74.9938253709-60.0000471409,0-84.5935004571,46.1948001121-88.1923396886,74.9938253709h173.9909941609Z"/>
      <path class="cls-2" d="m2811.1838127933,1532.3607034805v178.1924103999h-50.4003720546v-169.7937336253c0-47.3999541272-29.3974465629-67.7961469079-66.5909928928-67.7961469079-44.9979575039,0-69.0013009231,46.7973771196-69.0013009231,46.7973771196v190.7925034136h-50.4003720546v-277.1895791899h46.8015328232v38.9971216491s25.2001860273-46.1989558156,85.2002331682-46.1989558156c55.1960538943,0,104.3912719337,37.800279041,104.3912719337,106.1990029565Z"/>
    </g>
    <path class="cls-1" d="m4271.0866082386,1722.571408404h-1134.1288866305c-91.7994903271,0-166.4857936389-74.6863033118-166.4857936389-166.4857936389v-164.6531283951c0-19.9764667271,16.1947765416-36.1712432688,36.1712432687-36.1712432688s36.1712432688,16.1947765416,36.1712432688,36.1712432688v164.6531283951c0,51.9088924253,42.234414676,94.1433071014,94.1433071014,94.1433071014h1134.1288866305c51.9088924253,0,94.1433071014-42.234414676,94.1433071014-94.1433071014l.0041557035-879.6897062543c0-26.650526549-11.3616933705-52.1561567836-31.1719319576-69.9799690974l-566.4306985314-509.7074236007c-36.1421533442-32.5183798918-90.4738209104-32.3563074553-126.3874105621.4010253878-185.5563170029,169.2618035772-389.3935737046,343.2652648486-412.4161710977,360.4636437856-16.0119255876,11.9601146746-38.6729767761,8.6708753539-50.6247800437-7.330660975-11.9559589711-16.0036141806-8.6729532056-38.6708989243,7.330660975-50.6247800437,21.6553709413-16.1760758759,226.4733736692-191.3181999064,406.955576698-355.9547054875,63.5116165988-57.9388182046,159.612260049-58.2504959672,223.5311355909-.7293259643l566.4306985314,509.705345749c35.0325805096,31.5210110516,55.1254069347,76.6290946983,55.1254069347,123.7568502463l-.0041557035,879.6897062543c0,91.7994903271-74.6863033118,166.4857936389-166.4857936389,166.4857936389Z"/>
  </g>
</svg>